<svg xmlns="http://www.w3.org/2000/svg" viewBox="0 0 1152 326"><style>.st1,.st2{fill-rule:evenodd;clip-rule:evenodd;fill:#ff8a00}.st2{fill:#1870a0}</style><g id="Original"><circle cx="163.59" cy="163" r="162.91" fill="none"/><path class="st1" d="M130.01 322.57C56.15 307.13.68 241.65.68 163.21c0-17.52 2.78-34.39 7.9-50.2h85.43c21.74 0 32.55 9.62 32.55 28.93 0 28.05-23.18 46.05-69.54 53.98v22.18l72.99 104.47z"/><path class="st2" d="M242.13 145.46c-15.84 0-24.45 8.54-25.8 25.57h50.72v-.89c0-16.45-8.3-24.68-24.92-24.68z"/><path class="st2" d="M163.49.39c-55.4 0-104.33 27.68-133.74 69.95h67.37c53.42 0 80.16 23.43 80.16 70.16 0 31.55-20.81 57.73-62.42 78.47l76.67 104.64c76.55-13.3 134.77-80.05 134.77-160.4C326.31 73.29 253.42.39 163.49.39zm89.73 216.62c12.01 0 23.99-1.16 36-3.4v23.76c-10.51 2.28-23.26 3.4-38.24 3.4-43.11 0-64.63-20.24-64.63-60.77 0-38.71 18.58-58.06 55.78-58.06 36.08 0 54.12 18.39 54.12 55.2 0 4.91-.35 9.81-1.04 14.72h-78.88c0 16.76 12.28 25.15 36.89 25.15z"/><path d="M1150.87 233.64c-18.2 4.75-35.96 7.15-53.31 7.15-38.4 0-57.6-20.59-57.6-61.81 0-38.01 18.77-57.02 56.36-57.02 8 0 16.19 1.89 24.57 5.64V78.92h29.98v154.72zm-29.98-80.66c-6.22-4.09-13.98-6.14-23.33-6.14-18.62 0-27.97 10.47-27.97 31.37 0 24.8 9.7 37.24 29.09 37.24 7.84 0 15.26-1.12 22.21-3.28v-59.19zM943.2 171.06h50.72v-.89c0-16.46-8.31-24.68-24.92-24.68-15.84-.01-24.45 8.53-25.8 25.57zm25.8-49.1c36.08 0 54.12 18.39 54.12 55.2 0 4.91-.35 9.81-1.04 14.72H943.2c0 16.77 12.28 25.15 36.89 25.15 12.01 0 23.99-1.16 36-3.4v23.76c-10.51 2.28-23.25 3.4-38.24 3.4-43.11 0-64.63-20.24-64.63-60.76 0-38.72 18.58-58.07 55.78-58.07zM841.91 240.78V121.96h23.22l3.75 15.14c10.39-10.08 21.4-15.14 33.03-15.14v24.22c-11.16 0-21.17 4.64-29.98 13.91v80.7h-30.02zm-28.28-118.82v118.83h-23.45l-3.59-15.18c-13.68 10.12-28.16 15.18-43.46 15.18-24.3 0-36.47-14.37-36.47-43.11v-75.72h30.02v74.9c0 13.13 5.72 19.7 17.19 19.7 9.73 0 19.66-3.9 29.74-11.67v-82.94h30.02zM590.66 235.11v-24.88c13.21 5.29 28.47 7.92 45.74 7.92 12.9 0 19.35-4.13 19.35-12.44 0-7.92-4.37-11.9-13.02-11.9h-21.52c-24.14 0-36.2-11.86-36.2-35.66 0-24.88 17.62-37.32 52.85-37.32 14.95 0 29.01 2.24 42.22 6.76v24.92c-13.21-5.29-27.54-7.92-43.03-7.92-16.22 0-24.3 4.13-24.3 12.44 0 7.92 4.71 11.9 14.14 11.9h19.24c26.38 0 39.6 11.86 39.6 35.62 0 24.92-16.8 37.36-50.45 37.36-16.54 0-31.41-2.25-44.62-6.8zm-116.01 0v-24.88c13.21 5.29 28.47 7.92 45.74 7.92 12.9 0 19.35-4.13 19.35-12.44 0-7.92-4.37-11.9-13.02-11.9H505.2c-24.14 0-36.2-11.86-36.2-35.66 0-24.88 17.62-37.32 52.85-37.32 14.95 0 29.01 2.24 42.22 6.76v24.92c-13.21-5.29-27.54-7.92-43.03-7.92-16.22 0-24.3 4.13-24.3 12.44 0 7.92 4.71 11.9 14.14 11.9h19.24c26.38 0 39.6 11.86 39.6 35.62 0 24.92-16.8 37.36-50.45 37.36-16.53 0-31.41-2.25-44.62-6.8zm-58.25-44.12c-7.57-1.51-15.65-2.28-24.22-2.28-14.41 0-21.63 4.91-21.63 14.72 0 10.58 6.03 15.84 18.12 15.84 9.97 0 19.2-3.09 27.74-9.27v-19.01zm-75.83 12.79c0-23.6 17.19-35.42 51.61-35.42 8.07 0 16.15.77 24.22 2.28v-8.96c0-10.62-7.69-15.95-22.98-15.95-12.98 0-27.39 1.89-43.23 5.64V127.6c15.84-3.75 30.25-5.64 43.23-5.64 35.31 0 52.96 13.06 52.96 39.13v79.69h-17.42l-10.66-10.62c-10.31 7.07-21.71 10.62-34.15 10.62-29.06 0-43.58-12.32-43.58-37z" fill="#ff8a00"/><path class="st1" d="M327.25 308.28C477.66 259 812.5 226.5 1151.94 292.4l-20.5 33.51C896.5 282 608.11 269.34 327.25 308.28"/></g></svg>